<svg width="12" height="10" xmlns="http://www.w3.org/2000/svg"><path d="M6.229.714c.635.003 2.469.022 3.772.123.223.028.71.03 1.145.515.343.37.454 1.211.454 1.211s.114.986.114 1.973v.924c0 .987-.114 1.973-.114 1.973s-.112.84-.454 1.21c-.435.484-.922.487-1.145.516-1.422.109-3.477.124-3.916.126h-.097c-.205-.002-2.994-.032-3.874-.122-.254-.05-.825-.036-1.26-.52C.511 8.272.4 7.432.4 7.432S.286 6.447.286 5.46v-.925C.286 3.55.4 2.563.4 2.563s.112-.84.454-1.21C1.29.866 1.776.864 2 .836c1.303-.1 3.137-.12 3.772-.123zM4.573 2.856v4.287l3.572-2.144-3.572-2.143z" fill="#FFF"/></svg>