<svg xmlns="http://www.w3.org/2000/svg" width="204" height="52"><g fill="none" fill-rule="evenodd"><circle cx="121.076" cy="25.6" r="25.6" fill="#FEFEFE" transform="rotate(-90 121.076 25.6)"/><path fill="#222426" fill-rule="nonzero" d="M.038 45.053L11.575 1.738a1.111 1.111 0 011.07-.822h12.289c.356 0 .663.159.881.436.218.287.287.614.188.96l-8.932 33.353c-.09.347-.03.684.188.961.218.287.525.436.881.436h23.738c.356 0 .663.148.88.435.219.278.278.614.19.961l-1.932 7.17a1.111 1.111 0 01-1.07.822H1.108a1.1 1.1 0 01-.882-.436 1.11 1.11 0 01-.188-.96zM59.208.916h35.996c.426 0 .793.188 1.05.525.258.337.337.733.238 1.139l-.238.911a33.11 33.11 0 00-4.456 6.348.858.858 0 01-.773.465H70.536c-.614 0-1.129.396-1.277.99l-1.565 5.932a1.29 1.29 0 00.228 1.149 1.28 1.28 0 001.05.515h18.33c.426 0 .792.178 1.05.525.257.337.336.733.227 1.149l-1.743 6.595c-.158.584-.673.98-1.287.98H65.823c-.614 0-1.13.396-1.288.99l-1.723 6.388a1.31 1.31 0 00.228 1.158 1.3 1.3 0 001.06.515h24.568c.426 0 .793.189 1.05.525.258.337.337.743.228 1.159l-1.802 6.595c-.159.584-.674.98-1.278.98H46.987c-.356 0-.663-.158-.88-.435a1.051 1.051 0 01-.19-.96l11.36-42.652a1.983 1.983 0 011.93-1.486zM166.06 23.079l-5.893 22.598a1.02 1.02 0 01-1 .773l-12.438-.08a.847.847 0 01-.644-.317.784.784 0 01-.139-.703l.02-.079a31.59 31.59 0 006.833-19.667c0-1.277-.07-2.525-.218-3.763-.05-.436-.02-.822.09-1.258l5-18.409a1.686 1.686 0 011.644-1.258h9.596a1.65 1.65 0 011.495.911l12.37 23.52a.44.44 0 00.435.227.41.41 0 00.376-.326L190.222.916h12.488c.336 0 .623.149.821.406a.985.985 0 01.179.901l-11.448 42.959a1.683 1.683 0 01-1.634 1.268h-9.378a1.662 1.662 0 01-1.475-.862L166.87 22.97a.434.434 0 00-.436-.218.446.446 0 00-.376.327z"/><path fill="#D62628" d="M117.644.223c-8.655 1.159-15.943 6.645-19.617 14.21l13.28-2.594L117.643.223zM95.8 21.494a25.573 25.573 0 00-.327 4.11c0 7.259 3.02 13.815 7.882 18.479l1.525-13.013-9.08-9.576zM109.613 48.5a25.5 25.5 0 0011.467 2.704c4.229 0 8.22-1.02 11.725-2.842l-11.526-5.457-11.666 5.595zm29.857-5.09a25.486 25.486 0 007.21-17.805c0-1.238-.09-2.456-.258-3.644l-8.487 9.15 1.535 12.3zm4.516-29.253C140.4 6.996 133.548 1.738 125.378.362l6.24 11.606 12.368 2.188zm-22.995 23.677l5.734-4.16 5.734-4.168-2.189-6.744-2.188-6.744H113.9l-2.189 6.744-2.188 6.744 5.734 4.169z"/></g></svg>