<svg xmlns="http://www.w3.org/2000/svg" xmlns:xlink="http://www.w3.org/1999/xlink" width="36" height="36" viewBox="0 0 36 36">
    <defs>
        <circle id="a" cx="18" cy="18" r="18"/>
    </defs>
    <g fill="none" fill-rule="evenodd">
        <mask id="b" fill="#fff">
            <use xlink:href="#a"/>
        </mask>
        <use fill="#FFF" xlink:href="#a"/>
        <g mask="url(#b)">
            <path fill="#D5D4CE" d="M21.574 22.778h-7.03l.132-1.872s1.632-.252 3.482-.252c.86 0 3.438.476 3.438.476l-.022 1.648"/>
            <path fill="#C29D75" d="M21.25 19.447c-.084-1.576-2.213-3.03-3.84-3.033-1.847-.004-2.528 2.113-2.531 2.89-.005 1.318-.04 4.288-.04 4.288-.903.457-1.15 3.563 3.766 3.573 3.383.007 3.38-2.607 2.46-3.653 0 0 .277-2.323.184-4.065"/>
            <path fill="#B99368" d="M14.026 13.945c0 .683-.205-1.236-.459-1.236-.253 0-.458.554-.458 1.236 0 .363.571.948.571 1.58 0 .513.26 1.031.487 1.052 5.356.485-.14-2.996-.14-2.632M23.042 12.71c-.253 0-2.55 1.673-2.55 2.356 0 .683 1.698 1.534 1.95 1.51.228-.02.487-.538.487-1.051 0-.632.572-1.217.572-1.58 0-.682-.206-1.236-.459-1.236"/>
            <path fill="#C29D75" d="M22.944 11.204c0 1.333-.78 4.938-.78 5.895 0 .359-.043.707-.123 1.038-.497 1.713-2.002 2.957-3.78 2.957-2.185 0-3.956-1.878-3.956-4.194 0-.958-.78-4.563-.78-5.895 0-.34.04-.671.116-.99.55-1.895 2.386-3.288 4.567-3.288 2.615 0 4.736 2.004 4.736 4.477"/>
            <path fill="#E0E1DF" d="M14.303 23.138l3.23 12.923h.971l2.945-11.683-7.146-1.24"/>
            <path fill="#EB8C30" d="M16.403 36.588l3.27-.377v-7.4c0-.088-.009-.176-.025-.262-.058-.31-.22-1.074-.477-1.539-.137-.25-.643-.94-.643-.94s.158-.598.262-.812c.195-.402.883-1.556.883-1.556l-3.01-.05s.56 1.22.72 1.636c.072.184.251.745.251.745s-.717 1.056-.904 1.432c-.327.659-.327 1.923-.327 1.923v7.2"/>
            <path fill="#D17E2F" d="M18.062 26.137h-.002a5.12 5.12 0 0 1-.448-.059l.022-.044v.001h.001c.022.002.319.044.422.045h.004c.121 0 .475-.035.475-.035l-.008.038s-.344.054-.466.054"/>
            <path fill="#C6C5C0" d="M17.737 26.034l-.022-.063a15.141 15.141 0 0 0-.23-.608 19.102 19.102 0 0 0-.377-.814c.143.288.281.576.351.74.08.183.279.744.279.744v.001m-.73-1.688l-.012-.024c-.082-.163-.273-.521-.298-.571l.015.008c.064.125.175.346.295.587"/>
            <path fill="#D17E2F" d="M17.634 26.034s-.18-.562-.25-.746a20.516 20.516 0 0 0-.407-.942 98.796 98.796 0 0 0-.265-.587c.337.197.573.585.771 1.165.085.249.297.988.152 1.11h-.001"/>
            <path fill="#B97130" d="M17.734 26.147l-.01-.033.01.033m-.013-.01a.14.14 0 0 1-.006-.016l.002-.004.025.004c-.006.006-.014.01-.02.017"/>
            <path fill="#C6C5C0" d="M18.57 25.92c.053-.192.15-.517.22-.662.123-.253.44-.802.658-1.176l-.022.05s-.456.78-.651 1.182c-.07.144-.156.428-.206.605"/>
            <path fill="#D17E2F" d="M18.536 26.042c-.123-.275.03-.75.12-1.01.21-.603.516-1.094.938-1.275l-.146.325c-.218.374-.535.923-.658 1.176-.07.145-.167.47-.22.661l-.034.123M18.204 28.34l-.008-.002c-.118-.025-.697-.738-.295-1.121.509-.485.023-1.08.076-1.08h.003c.116.032.5.617.38 1.158-.116.527-.05 1.044-.156 1.044"/>
            <path fill="#FCFDFD" d="M14.707 20.95c-.032-.145-.148.11-.152.133-.128.862.908 5.221 1.356 5.767.166.202.436-2.317 1.961-3.028.66-.308-2.863-1.527-3.165-2.872"/>
            <path fill="#FCFDFD" d="M21.596 21.13c-1.731 2.474-4.739 2.416-3.304 2.775 1.423.356 1.442 2.749 1.803 3.285.207.308.791-1.78 1.175-3.345.314-1.282.407-2.831.326-2.715"/>
            <path fill="#000" d="M18.822 43.975a19.464 19.464 0 0 1-1.637-.002 19.856 19.856 0 0 1-7.236-1.684c.006-.68-.025-1.384-.094-2.155a36.862 36.862 0 0 0-.197-1.709C9.117 34.472 7.6 28.392 6.9 25.68a2.581 2.581 0 0 1-.01-.037c-.087-.337 3.994-1.697 5.758-2.46a7.15 7.15 0 0 0 .536-.254c.4-.216 1.496-1.807 1.335-1.384-.111.29-.104.865-.016 1.628.022.197.055.406.088.627.1.612.23 1.308.39 2.055v.003c.024.108.05.217.072.327a117.35 117.35 0 0 0 1.35 5.377l.064.232c0 .003.004.006.005.009.465 1.695.912 3.23 1.22 4.258.033.116.064.225.095.327h-.001l.01.039.15.5.002.007.137.45s.003.034.014.098c0 .041.015.095.024.16l.003.002c.013.09.028.201.05.334.011.112.033.24.044.38.011.03.011.06.022.09.154 1.162.401 3.175.58 5.527"/>
            <path fill="#191A19" d="M18.25 43.99a19.91 19.91 0 0 1-1.506-.04c.142-2.312.395-4.476.82-6.173.03-.122-.188-.573-.564-1.258a73.48 73.48 0 0 0-.597-1.062c-1.47-2.576-3.949-6.786-5.139-10.162-.065-.184.847-.78 1.16-.883.222-.072-.734-.263-.685-.326.114-.148.47-.516.753-.727.17-.126.313-.197.364-.131.682.873 2.275 5.49 3.547 9.392.473 1.45.902 2.802 1.223 3.827l.07.221.17.55h.001l.012.039.154.497.103.333.075.245v.056l.002.114c.006.611.025 2.799.037 5.487"/>
            <path fill="#000" d="M28.003 30.686c-.475 2.508-.707 5.072-1.162 6.806-.217.83-.392 1.65-.517 2.456-.124.799-.2 1.582-.22 2.343a19.871 19.871 0 0 1-8.076 1.7c-.283 0-.567-.006-.846-.018.085-1.983.202-3.41.224-3.68.011-.004.004-.008.004-.011h.001l.004-.035.042-.165v-.001c.085-.34.294-1.18.576-2.327l.045-.185c.007-.029.01-.058.021-.086.022-.078.039-.156.058-.236v-.002c.07-.281.14-.577.217-.885.022-.098.044-.198.077-.298.352-1.459.764-3.164 1.17-4.889h-.001v-.002c.017-.075.032-.151.05-.227.342-1.458.683-2.923.97-4.259a93.65 93.65 0 0 0 .486-2.276l.002-.004.017-.08a73.641 73.641 0 0 0 .22-1.136c.022-.144.055-.28.077-.41a14.5 14.5 0 0 0 .143-1.002c.022-.231.031-.4.017-.495a.388.388 0 0 1-.006-.056c0-.037.007-.04.025-.016.013.017.03.047.05.087.14.272.455 1.003.735 1.154.149.081.334.184.547.303 1.54.854 4.545 2.514 5.973 2.514.03 0 .05.02.064.06.145.406-.507 2.827-.987 5.358"/>
            <path fill="#191A19" d="M25.162 25.85c.117-.157-1.231-.999-1.545-1.101-.22-.072 1.07-.313 1.02-.377-.183-.236-.974-.88-1.11-.705-1.22 1.561-6.127 16.652-6.127 16.652s4.148-9.63 7.762-14.469"/>
            <path fill="#000" d="M9.918 39.282l-.217 2.896a19.88 19.88 0 0 1-3.785-2.28c-.313-.25-.618-.508-.915-.774.302-5.258.802-10.374 1.63-13.048 0 0 .128-.23.27-.396.087-.104.18-.183.253-.167.215.049 2.764 13.77 2.764 13.77M31 39.203a19.908 19.908 0 0 1-4.532 2.923l-.2-3.025s2.42-13.668 2.7-13.769a.089.089 0 0 1 .022-.004c.186-.01.5.567.5.567.838 2.704 1.288 7.94 1.51 13.308"/>
            <path fill="#0A0B09" d="M26.342 32.146c.014.357-.127.268-.566.285l-3.62-.063c-.44.018-.404.017-.418-.34l.004-.187c-.014-.357.302-.33.716-.31l3.422.043c.44-.018.462 0 .476.356l-.014.216"/>
            <path fill="#191A19" d="M14.906 23.871c-.286 1.348 1.903 8.337 1.903 8.337l1.14 3.688.142-.413c-1.606-5.045-3.063-12.185-3.185-11.612"/>
            <path fill="#0A0B09" d="M18.158 36.611V37.7s-5.579-9.12-6.56-12.494c-.11-.373 1.249-.932 1.249-.932l-.849-.352s2.556-2.918 2.562-2.825c.295 4.376 3.598 15.515 3.598 15.515"/>
            <path fill="#191A19" d="M21.418 23.17c.287 1.348-1.902 8.338-1.902 8.338l-1.686 5.837-.19-.506c1.631-5.007 3.657-14.241 3.778-13.668"/>
            <path fill="#0A0B09" d="M17.986 36.738s-.289 1.3-.38 2.267c-.059.619-.213 1.224-.176 1.14 1.212-2.806 4.643-10.19 7.373-14.194.22-.321-1.776-1.335-1.776-1.335l1.256-.301s-2.692-3.186-2.699-3.093c-.295 4.376-3.598 15.516-3.598 15.516"/>
            <path fill="#C7C6C1" d="M21.259 19.66v-.023c.35-.432.62-.941.782-1.5l.02-.086a4.28 4.28 0 0 0 .033-.11 4.308 4.308 0 0 1-.835 1.72"/>
            <path fill="#997B5D" d="M18.343 21.096h-.07-.061c-.812 0-1.564-.271-2.185-.734a3.783 3.783 0 0 0 2.234.732c1.198 0 2.272-.565 2.997-1.457v.023c-.709.88-1.752 1.436-2.915 1.436"/>
            <path fill="#997B5D" d="M18.26 21.094c-.828 0-1.597-.27-2.233-.732a4.216 4.216 0 0 1-1.559-2.422c.488 1.712 1.952 2.957 3.692 2.957l.113-.002.122.002c1.702 0 3.148-1.191 3.666-2.846a3.905 3.905 0 0 1-.02.086 4.263 4.263 0 0 1-.783 1.5c-.725.892-1.8 1.457-2.997 1.457"/>
            <path fill="#0E1417" d="M23.407 10.046c0-1.196-2.864-3.325-4.592-3.861-2.21-.687-3.958.718-3.958 1.914l.001.043c-.972.016-1.857.696-1.833 3.05.009.831.57 1.878.799 2.491.102.274.082.515.097.74.02.288.056.526.056.526.108.023.149.035.19.01.028-.018-.135-1.823-.135-3.839 0-1.008.983-1.525 2.013-1.597.075-.005.265-.015.45 0 .205.01.86.032 1.166.046.992.042 1.092-.091 1.782-.07.735.021 1.214.08 1.83.363.957.437 1.242.751 1.242 1.76 0 2.015-.162 3.82-.135 3.837.042.026.082.014.19-.01 0 0 .037-.237.056-.526.015-.224-.005-.465.098-.739.229-.613.464-1.86.553-2.686.038-.36.069-.55.1-.879.03-.222.03-.332.03-.573"/>
        </g>
    </g>
</svg>
