<svg xmlns="http://www.w3.org/2000/svg" width="91" height="14" viewBox="0 0 91 14">
    <path fill="#ACACAC" fill-rule="evenodd" d="M31.542 4.378c1.907 0 3.254.887 3.254 2.812 0 1.013-.483 1.925-1.538 2.432l1.03 1.241c.534.621 1.068 1.052 2.008 1.305l-.394 1.33c-1.5-.114-2.377-.937-3.267-2.027l-1.132-1.444c-.178.026-.42.038-.623.038h-.877v3.268h-1.741V4.378h3.28zM5.196 0c.317 0 .576.244.587.551-.001.172-.086.334-.23.436l1.572 2.538c.033.06.069.117.109.172.05.06.127.095.207.095.02 0 .039-.002.058-.006.037.002.074-.008.104-.03l1.863-.988c-.029-.066-.043-.137-.043-.208-.01-.232.128-.447.346-.542.219-.095.475-.051.647.11.172.162.227.409.137.624-.09.216-.305.357-.544.357-.049 0-.097-.006-.144-.017L8.914 5.62c.718.82 1.066 1.951 1.066 3.242 0 2.812-1.716 4.623-4.806 4.623-3.013 0-4.59-1.824-4.59-4.648 0-1.225.353-2.255.994-3.028l-.96-2.666c-.025.003-.049.004-.073.004-.31-.01-.552-.262-.545-.563.008-.3.263-.54.572-.536.31.004.56.249.56.55 0 .06-.011.12-.032.176l1.978.966.106.037c.03.01.06.015.09.015.088 0 .17-.041.22-.11.037-.064.07-.129.1-.196L4.851.996C4.702.895 4.611.729 4.61.55 4.62.244 4.88 0 5.196 0zm82.449 4.251c1.31 0 2.009.241 2.657.52l-.47 1.292c-.738-.216-1.22-.368-2.2-.368-1.703 0-3.076.874-3.076 3.091 0 2.242 1.474 3.217 3.267 3.217.381 0 .674-.038.915-.076V8.913h1.73v4.066c-.916.342-1.755.494-2.836.494-2.975 0-4.856-1.571-4.856-4.56 0-3.078 1.729-4.662 4.869-4.662zm-75.148.127l2.466 7.65 2.848-7.65h1.767l-3.521 8.955H13.78l-3.127-8.955h1.843zm13.705 0v1.368h-3.84v2.445h3.56v1.292h-3.56v2.482h4.132v1.368h-5.86V4.378h5.568zm25.312 0v1.368h-3.84v2.445h3.56v1.292h-3.56v2.482h4.132v1.368h-5.86V4.378h5.568zm8.581 0v1.38h-2.91v7.575h-1.743V5.76h-2.91V4.378h7.563zm7.82 0v1.38h-2.912v7.575H63.26V5.76H60.35V4.378h7.564zm3.025 0v8.955h-1.73V4.378h1.73zm4.399 0l3.966 6.764h.026l-.051-1.051V4.378h1.741v8.955h-2.135L75.008 6.71h-.05l.05 1.089v5.535H73.28V4.378h2.06zm-34.95 0c2.137 0 3.18.849 3.18 2.381 0 .836-.497 1.482-1.069 1.736v.025c.725.177 1.717.874 1.717 2.128 0 1.583-.928 2.685-3.446 2.685h-3.267V4.378h2.886zM5.302 5.619C3.241 5.62 2.34 7 2.34 8.824c0 1.786.877 3.28 2.873 3.28 2.136 0 3-1.418 3-3.255 0-1.849-.94-3.23-2.91-3.23zm35.14 3.762h-1.195v2.584h1.36c1.195 0 1.869-.304 1.869-1.266 0-.963-.687-1.318-2.034-1.318zm-9.18-3.635h-1.258v3.053h.954c1.322 0 2.047-.494 2.047-1.546 0-1.089-.509-1.507-1.742-1.507zm8.824-.038h-.84v2.445h1.069c1.017 0 1.525-.355 1.525-1.216 0-.925-.61-1.229-1.754-1.229z"/>
</svg>
