<?xml version="1.0" encoding="UTF-8"?>
<svg width="12px" height="10px" viewBox="0 0 12 10" version="1.1" xmlns="http://www.w3.org/2000/svg" xmlns:xlink="http://www.w3.org/1999/xlink">
    <!-- Generator: Sketch 64 (93537) - https://sketch.com -->
    <title>youtube</title>
    <desc>Created with Sketch.</desc>
    <g id="Symbols" stroke="none" stroke-width="1" fill="none" fill-rule="evenodd">
        <g id="Модули/Подвал" transform="translate(-1312.000000, -17.000000)" fill="#FFFFFF" fill-rule="nonzero">
            <g id="Подвал">
                <g id="Group" transform="translate(0.000000, 12.000000)">
                    <g id="Социальные-сети" transform="translate(1308.000000, 0.000000)">
                        <path d="M10.2289952,5.71388985 C10.863587,5.71735325 12.6976552,5.73605562 14.0008931,5.83704839 C14.2241772,5.86455219 14.7111151,5.86740973 15.1458938,6.35247666 C15.4885009,6.72252773 15.5999643,7.56300086 15.5999643,7.56300086 C15.5999643,7.56300086 15.7142857,8.54920838 15.7142857,9.53577309 L15.7142857,9.53577309 L15.7142857,10.4601864 C15.7142857,11.4467511 15.5999643,12.4329586 15.5999643,12.4329586 C15.5999643,12.4329586 15.4881436,13.2730745 15.1458938,13.6424112 C14.7111151,14.1274782 14.2241772,14.1303357 14.0008931,14.1589111 C12.579179,14.267815 10.5237571,14.2833021 10.0845488,14.2853992 L9.98802652,14.2855934 C9.78270056,14.2834824 6.99449729,14.2533156 6.11414281,14.1631974 C5.85977761,14.1124761 5.28924217,14.127121 4.85410619,13.642054 C4.51149913,13.2727174 4.40003573,12.4326014 4.40003573,12.4326014 C4.40003573,12.4326014 4.28571429,11.4467511 4.28571429,10.4598292 L4.28571429,10.4598292 L4.28571429,9.5354159 C4.28571429,8.54920838 4.40003573,7.56300086 4.40003573,7.56300086 C4.40003573,7.56300086 4.51185638,6.72252773 4.85410619,6.35247666 C5.28924217,5.86740973 5.7758228,5.86455219 5.99910686,5.83704839 C7.30205372,5.73605562 9.13606796,5.71735325 9.77064982,5.71388985 Z M8.57276828,7.85625561 L8.57276828,12.1425614 L12.1453133,9.9994085 L8.57276828,7.85625561 Z" id="youtube"></path>
                    </g>
                </g>
            </g>
        </g>
    </g>
</svg>