<svg xmlns="http://www.w3.org/2000/svg" width="204" height="31" viewBox="0 0 204 31">
    <g fill="none" fill-rule="nonzero">
        <path fill="#027BCF" d="M72.268 1.534l-1.289 7.839a24.55 24.55 0 0 0-6.535-1.688c-4.678 0-8.943 3.314-8.943 8.085 0 5.967 3.697 7.455 7.885 7.256a12.715 12.715 0 0 0 4.633-1.15l2.715-.86 1.197 7.302-2.194.844a19.507 19.507 0 0 1-8.944 1.687c-10.43-.23-15.202-7.823-14.542-15.57a17.544 17.544 0 0 1 6.688-12.165A17.615 17.615 0 0 1 63.263.138c3.038.061 6.044.522 8.944 1.38l.061.016zm83.712-.69l-5.63 29.5h8.652l2.194-11.614 5.63 11.613h16.245l10.14-19.574 1.104 11.168-3.482-1.488-2.7 5.445 7.21 4.48h8.176l-4.172-29.5h-9.327l-14.742 26.969-6.32-12.625L182.703.874H172.44l-9.65 9.65 1.842-9.65-8.652-.03zm-29.423 0l10.815-.322c4.802-.108 10.17 1.073 11.858 6.197a7.242 7.242 0 0 1-3.083 8.345c4.586 3.252 3.467 9.971-.63 12.978-3.359 2.454-6.503 2.485-10.43 2.44l-13.653-.154L126.557.844zm6.458 6.642l-.782 4.694h5.385c1.488 0 3.114 0 3.773-1.733.445-1.12-.107-2.393-1.227-2.854a2.31 2.31 0 0 0-1.12-.138l-6.029.031zm-2.807 15.632h5.753c1.795 0 4.034-.322 4.48-2.485a2.27 2.27 0 0 0-1.903-2.578h-.015a3.138 3.138 0 0 0-.537 0h-6.888l-.874 5.124-.016-.061zM106.108.844L89.926 30.328h4.632c3.912-.169 4.817-1.274 5.523-2.194 3.513-5.83 6.105-11.352 9.235-17.396l1.043 11.352-3.482-1.488-2.716 5.476 8.238 4.188h7.256L115.436.844h-9.327zm-30.634 0h22.197L96.183 9.05H89.71l-4.05 21.277H77.04l4.05-21.231h-7.057L75.474.844z"/>
        <path fill="#003267" d="M40.575 30.006h7.317l-10.615-16L50.822.583H38.78L11.935 27.566 16.844.522H10.2L0 7.195v7.562l6.12-2.853-.828 2.485c-.935 5.2-1.886 10.432-2.822 15.617h19.712l8.161-8.714 3.344 5.078a8.321 8.321 0 0 0 6.888 3.636zM24.667 11.582L17.55.537h8.13a8.494 8.494 0 0 1 5.968 2.976l.476.66-7.456 7.409z"/>
    </g>
</svg>
