<svg xmlns="http://www.w3.org/2000/svg" width="19" height="16" viewBox="0 0 19 16">
    <path fill="#FFF" fill-rule="nonzero" d="M5.975 16c7.17 0 11.092-6.155 11.092-11.492 0-.175-.004-.35-.011-.522A8.092 8.092 0 0 0 19 1.894a7.562 7.562 0 0 1-2.239.636A4.031 4.031 0 0 0 18.476.296a7.654 7.654 0 0 1-2.476.98A3.832 3.832 0 0 0 13.155 0c-2.153 0-3.899 1.809-3.899 4.039 0 .317.035.625.101.92-3.24-.168-6.112-1.776-8.035-4.22a4.14 4.14 0 0 0-.528 2.03c0 1.402.689 2.64 1.735 3.363a3.767 3.767 0 0 1-1.765-.505l-.001.051c0 1.956 1.344 3.59 3.127 3.96a3.775 3.775 0 0 1-1.76.07c.496 1.604 1.935 2.772 3.641 2.805A7.649 7.649 0 0 1 0 14.186 10.757 10.757 0 0 0 5.976 16"/>
</svg>
