<svg xmlns="http://www.w3.org/2000/svg" width="25" height="14" viewBox="0 0 25 14">
    <path fill="#FFF" fill-rule="nonzero" d="M24.867 12.644a1.67 1.67 0 0 0-.084-.16c-.434-.767-1.263-1.708-2.486-2.824l-.026-.025-.013-.013-.013-.013h-.013c-.556-.52-.907-.869-1.055-1.048-.27-.34-.33-.685-.182-1.035.104-.264.495-.821 1.171-1.673.356-.451.638-.813.846-1.086 1.502-1.959 2.153-3.21 1.953-3.756l-.078-.127c-.052-.077-.186-.147-.403-.211-.217-.064-.495-.075-.833-.032l-3.749.025a.495.495 0 0 0-.26.007l-.17.038-.065.032-.052.039a.574.574 0 0 0-.143.134.873.873 0 0 0-.13.223 20.693 20.693 0 0 1-1.393 2.875 27.15 27.15 0 0 1-.885 1.373c-.269.388-.495.673-.677.856-.182.183-.347.33-.494.44-.148.112-.26.158-.339.141a9.69 9.69 0 0 1-.221-.05.856.856 0 0 1-.293-.314 1.383 1.383 0 0 1-.15-.498 5.394 5.394 0 0 1-.045-.518 10.61 10.61 0 0 1 .006-.613c.01-.264.014-.443.014-.536 0-.324.006-.675.019-1.054l.032-.901c.01-.222.013-.456.013-.703 0-.247-.015-.44-.045-.581a1.963 1.963 0 0 0-.136-.409.692.692 0 0 0-.267-.307 1.52 1.52 0 0 0-.436-.172c-.46-.102-1.046-.158-1.758-.166-1.614-.017-2.65.085-3.11.307a1.749 1.749 0 0 0-.495.383c-.156.187-.178.29-.065.306.52.077.889.26 1.106.55l.078.153c.06.11.122.307.182.588.061.28.1.592.117.932a9.762 9.762 0 0 1 0 1.597 18.69 18.69 0 0 1-.123 1.035c-.04.247-.098.447-.176.6a2.52 2.52 0 0 1-.156.281.222.222 0 0 1-.065.064.991.991 0 0 1-.352.064c-.121 0-.269-.06-.442-.179a3.101 3.101 0 0 1-.54-.492 6.578 6.578 0 0 1-.632-.875 15.183 15.183 0 0 1-.729-1.328l-.208-.37c-.13-.24-.308-.586-.533-1.042a19.89 19.89 0 0 1-.6-1.323.844.844 0 0 0-.312-.408L4.907.806A.896.896 0 0 0 4.7.698a1.402 1.402 0 0 0-.3-.083L.834.64C.47.64.221.721.091.883L.04.96A.407.407 0 0 0 0 1.164c0 .094.026.209.078.345a41.827 41.827 0 0 0 1.699 3.475C2.388 6.1 2.92 7 3.37 7.68c.451.681.911 1.324 1.38 1.929.469.604.779.992.93 1.162.152.17.272.298.359.384l.325.306c.208.205.514.45.918.735.403.285.85.566 1.34.843.49.277 1.061.503 1.712.677.65.175 1.284.245 1.9.211h1.497c.304-.026.534-.12.69-.281l.052-.064a.838.838 0 0 0 .098-.236c.03-.107.045-.224.045-.351-.009-.367.02-.697.085-.99.065-.294.139-.516.221-.665a1.635 1.635 0 0 1 .502-.562.858.858 0 0 1 .103-.045c.209-.068.454-.002.736.199.282.2.547.447.794.74.247.295.545.625.892.99.347.367.65.64.91.818l.261.154c.174.102.4.196.677.28.277.086.52.107.729.065l3.332-.051c.33 0 .586-.054.768-.16.182-.107.29-.224.325-.351a.972.972 0 0 0 .007-.435 1.58 1.58 0 0 0-.092-.338z"/>
</svg>
