<svg xmlns="http://www.w3.org/2000/svg" width="18" height="18"><g fill="none" fill-rule="evenodd"><circle cx="9" cy="7" r="7" fill="#000"/><circle cx="9" cy="7" r="4.5" fill="#F30000" stroke="#FFF"/><text fill="#FFF" font-family="FedraSansPro-Bold, Fedra Sans Pro" font-size="9" font-weight="bold"><tspan x="7" y="10">1</tspan></text><path fill="#000" fill-rule="nonzero" d="M17.395 15.45l-1.808-3.877a7.917 7.917 0 01-4.43 2.98l1.459 3.143a.527.527 0 00.478.304h.023c.212-.01.4-.147.472-.347l.84-2.325 2.308.84a.528.528 0 00.658-.719zM1.866 11.573L.058 15.45a.528.528 0 00.658.718l2.308-.84.84 2.325c.073.2.26.337.472.346L4.36 18c.204 0 .39-.118.477-.304l1.458-3.144a7.917 7.917 0 01-4.43-2.979z"/></g></svg>