<svg xmlns="http://www.w3.org/2000/svg" width="18" height="18"><defs><linearGradient id="a" x1="0%" x2="102%" y1="0%" y2="101%"><stop offset="0%" stop-color="#FF0467"/><stop offset="100%" stop-color="#FC7437"/></linearGradient></defs><g fill="none" fill-rule="evenodd"><path fill="#000" d="M17.412 8.412h-.948a7.4 7.4 0 00-6.688-6.689V.776a.678.678 0 00-.682-.682.678.678 0 00-.682.682v.947a7.4 7.4 0 00-6.689 6.689H.776a.678.678 0 00-.682.682c0 .379.303.682.682.682h.947a7.4 7.4 0 006.689 6.688v.948c0 .379.303.682.682.682a.679.679 0 00.682-.682v-.948a7.4 7.4 0 006.688-6.688h.948a.679.679 0 00.682-.682.678.678 0 00-.682-.682zM9.776 15.1v-1.838a.679.679 0 00-.682-.682.678.678 0 00-.682.682V15.1a6.08 6.08 0 01-5.325-5.324h1.838c.38 0 .682-.303.682-.682a.678.678 0 00-.682-.682H3.087a6.081 6.081 0 015.325-5.325v1.838c0 .38.303.682.682.682a.679.679 0 00.682-.682V3.087A6.08 6.08 0 0115.1 8.412h-1.838a.679.679 0 00-.682.682c0 .379.303.682.682.682H15.1A6.078 6.078 0 019.776 15.1z"/><circle cx="9" cy="9" r="1.594" fill="url(#a)"/></g></svg>