<svg xmlns="http://www.w3.org/2000/svg" width="16" height="16"><defs><linearGradient id="a" x1="0%" x2="102%" y1="0%" y2="101%"><stop offset="0%" stop-color="#FF0467"/><stop offset="100%" stop-color="#FC7437"/></linearGradient></defs><path fill="url(#a)" fill-rule="evenodd" d="M13.6 6h-.14c.341-.589.54-1.27.54-2a4 4 0 00-8 0 4 4 0 00-4 4c0 .729.198 1.411.54 2H2.4C.975 10.638 0 12.005 0 13.463V15c0 .351.554 1 .969 1h10.156c.415 0 .875-.649.875-1v-1.537c0-.509-.125-1.004-.34-1.463h3.465c.415 0 .875-.649.875-1V9.463c0-1.458-.975-2.825-2.4-3.463zM10 2c1.103 0 2 .897 2 2s-.897 2-2 2a1.97 1.97 0 01-.602-.103 4.009 4.009 0 00-1.296-1.295A1.97 1.97 0 017.999 4c0-1.103.897-2 2-2H10zM6 6a2 2 0 010 4 1.997 1.997 0 01-1.966-1.661A1.796 1.796 0 014 8a2 2 0 012-2zm4 8H2v-.537c0-.543.356-1.107.898-1.463h6.203c.542.356.898.92.898 1.463V14H10zm4-4H9.46c.341-.589.54-1.27.54-2h3.102c.542.356.898.92.898 1.463V10z"/></svg>