<svg xmlns="http://www.w3.org/2000/svg" width="36" height="36"><path fill="#D5D5D5" fill-rule="evenodd" d="M18 0c9.941 0 18 8.059 18 18s-8.059 18-18 18S0 27.941 0 18 8.059 0 18 0zm.195 25.527c-.304 0-.54.092-.709.276a.96.96 0 00-.252.674c0 .257.084.474.252.65.168.176.405.264.71.264.296 0 .533-.088.708-.264a.884.884 0 00.264-.65.938.938 0 00-.264-.674c-.175-.184-.412-.276-.709-.276zM18.547 10c-1.313 0-2.395.385-3.246 1.154-.852.77-1.285 1.795-1.301 3.076h1.395c.015-.914.31-1.638.884-2.173.575-.536 1.33-.803 2.268-.803.93 0 1.654.28 2.174.838.52.558.779 1.326.779 2.303 0 .484-.06.916-.182 1.294-.12.38-.293.727-.515 1.043-.167.238-.49.6-.966 1.088l-.528.53c-.774.761-1.278 1.423-1.512 1.986-.235.562-.36 1.305-.375 2.227h1.394c0-1.415.442-2.493 1.325-3.235 1.07-.984 1.796-1.846 2.18-2.584.382-.738.574-1.53.574-2.373 0-1.344-.39-2.408-1.166-3.193C20.95 10.393 19.89 10 18.547 10z"/></svg>