<svg xmlns="http://www.w3.org/2000/svg" width="204" height="55"><g fill="none"><path fill="#65666A" d="M182.71 41.456c-9.819 5.56-29.196 6.39-36.158 2.598.468-.78 1.091-.935 1.922-.52 2.806 1.247 5.767 1.455 8.832 1.715 8.572.883 16.884-.468 24.884-3.585.26-.104.416-.156.52-.208z"/><path fill="#65666A" d="M180.424 37.82c-1.299 1.195-2.65 2.338-4 3.585.571-3.689 3.844-6.65 8.052-7.481.156 3.169-3.533 7.273-7.48 8.208a70.054 70.054 0 013.688-4 2.431 2.431 0 00-.26-.312zm15.066-2.13c-1.195 2.961-5.56 5.35-10.079 5.143 1.922-1.039 3.74-1.922 5.455-2.805-.052-.052-.052-.156-.104-.208-1.766.675-3.585 1.35-5.507 2.13 1.61-3.17 6.234-4.987 10.235-4.26zm-19.066 17.144c-4.26.311-7.637-.935-9.975-4.572 1.715.727 3.377 1.507 5.091 2.234.052-.052.052-.156.104-.208-1.558-.935-3.169-1.766-4.78-2.701 3.326-.832 8.105 1.818 9.56 5.247zm-10.546-9.819c1.35-4.156 4.312-6.286 8.468-7.065-.104 3.325-4.052 7.065-7.74 7.636 1.142-1.246 2.337-2.649 3.584-3.948v-.052c-1.403 1.143-2.806 2.286-4.312 3.429zm-4.312 11.637c-3.792-.364-7.17-3.429-7.948-7.325 1.506 1.299 2.857 2.545 4.26 3.792a.698.698 0 01.207-.156c-1.195-1.35-2.338-2.701-3.584-4.104 3.74.78 6.961 4.312 7.065 7.793zm2.545-16.52c-2.026 3.792-5.09 5.454-9.247 5.558 1.455-.935 2.91-1.818 4.364-2.753a.394.394 0 01-.104-.208c-1.662.78-3.273 1.663-5.09 2.546 1.713-3.429 5.87-5.559 10.077-5.143zm12.936 7.532c2.026.416 3.793.676 5.559 1.04 0-.104.052-.156.052-.312a656.858 656.858 0 00-5.195-1.559c3.117-1.299 8.052.156 10.13 2.91-3.325 1.61-8.26.675-10.546-2.079z"/><g fill="#65666A"><path d="M21.975 41.612c7.948 3.17 16.26 4.468 24.884 3.585 3.013-.312 6.027-.468 8.832-1.714.883-.416 1.506-.312 1.922.519-6.91 3.844-26.339 2.961-36.157-2.597.103.103.311.155.519.207z"/><path d="M23.534 38.132c1.194 1.246 2.39 2.597 3.688 4-3.948-.935-7.689-5.04-7.48-8.208 4.155.883 7.428 3.844 8 7.532-1.351-1.246-2.702-2.39-4-3.584-.053 0-.105.052-.208.26zm-4.572 1.818c-1.87-.727-3.74-1.455-5.507-2.13-.052.052-.052.156-.104.208 1.715.883 3.48 1.766 5.455 2.805-4.572.208-8.935-2.13-10.13-5.143 4-.727 8.675 1.09 10.286 4.26zm18.286 7.637c-1.61.935-3.22 1.766-4.779 2.701.052.052.052.156.104.208 1.714-.727 3.377-1.507 5.091-2.234-2.338 3.688-5.714 4.883-9.974 4.572 1.506-3.43 6.338-6.079 9.558-5.247zm-3.324-8.001v.052c1.246 1.299 2.441 2.702 3.584 3.948-3.688-.571-7.636-4.311-7.74-7.636 4.156.727 7.117 2.857 8.468 7.065-1.403-1.143-2.858-2.286-4.312-3.429zm15.793 7.221a338.631 338.631 0 01-3.585 4.104.718.718 0 01.208.156c1.35-1.247 2.753-2.441 4.26-3.792-.78 3.896-4.156 7.013-7.949 7.325.052-3.429 3.273-6.961 7.066-7.793zm.415-3.584c-1.818-.883-3.429-1.715-5.091-2.546a.394.394 0 01-.104.208c1.455.935 2.91 1.818 4.364 2.753-4.104-.104-7.221-1.766-9.247-5.506 4.208-.416 8.364 1.714 10.078 5.09zm-33.56 4.571c2.078-2.753 7.065-4.26 10.13-2.909-1.766.52-3.48 1.04-5.195 1.559 0 .104.052.156.052.311 1.767-.363 3.533-.623 5.56-1.039-2.287 2.702-7.222 3.637-10.547 2.078z"/></g><path d="M.156.52h10.442l4.052 15.637 4-15.637h10.442v25.715h-6.494V6.65L17.56 26.287h-5.87L6.702 6.65v19.637H.156zm49.82 21.507h-9.039l-1.247 4.26h-8.104L41.249.52h8.675l9.663 25.715h-8.312l-1.299-4.208zm-1.662-5.559l-2.857-9.247-2.806 9.247h5.663zM62.08.52h13.196c2.857 0 5.04.675 6.442 2.078 1.455 1.35 2.13 3.324 2.13 5.818 0 2.597-.78 4.624-2.338 6.078-1.558 1.455-3.948 2.182-7.169 2.182h-4.364v9.559h-8V.52h.104zm8.001 11.013h1.922c1.507 0 2.598-.26 3.221-.78.624-.519.935-1.194.935-2.025 0-.832-.26-1.507-.83-2.078-.52-.572-1.56-.832-3.014-.832h-2.286v5.715h.052zm31.689 10.494h-9.038l-1.247 4.26H83.38L93.043.52h8.676l9.663 25.715h-8.312l-1.3-4.208zm-1.61-5.559l-2.857-9.247-2.805 9.247h5.662zm31.379-13.974c7.792.83 11.74 4.312 11.74 10.546 0 6.338-3.896 9.87-11.74 10.546v2.649h-7.222v-2.753c-7.792-.676-11.688-4.156-11.688-10.494 0-6.234 3.896-9.715 11.688-10.546V.52h7.222v1.974zm-7.222 15.793V7.637c-1.194.363-2.13.987-2.857 2.026-.727.987-1.09 2.13-1.09 3.429 0 1.194.363 2.285 1.09 3.22.676.936 1.663 1.559 2.857 1.975zm7.222-.052c1.246-.364 2.233-.987 2.909-1.923.675-.935 1.039-2.026 1.039-3.324a5.736 5.736 0 00-1.04-3.325c-.727-.987-1.662-1.663-2.908-2.078v10.65zm16.156-4.832c0-4.208 1.195-7.48 3.533-9.818 2.338-2.338 5.61-3.533 9.766-3.533 4.26 0 7.585 1.143 9.871 3.429 2.338 2.286 3.48 5.506 3.48 9.662 0 3.014-.519 5.455-1.506 7.377-.987 1.923-2.493 3.43-4.364 4.468-1.922 1.091-4.312 1.61-7.169 1.61-2.91 0-5.299-.467-7.22-1.402-1.923-.935-3.43-2.39-4.625-4.364-1.194-1.922-1.766-4.416-1.766-7.429zm7.949.052c0 2.598.467 4.468 1.454 5.61.987 1.144 2.286 1.715 3.948 1.715 1.715 0 3.014-.571 3.949-1.662s1.402-3.117 1.402-5.975c0-2.441-.467-4.208-1.454-5.298-.987-1.091-2.286-1.663-3.949-1.663-1.61 0-2.909.572-3.844 1.714-1.039 1.04-1.506 2.962-1.506 5.56zM179.177.52h7.949v8.987h8.675V.52h8v25.715h-8v-10.39h-8.675v10.39h-7.949z" fill="#CA2029"/><path d="M80.315 42.703h2.494c2.286 0 3.948.416 5.04 1.195 1.09.78 1.662 2.026 1.662 3.74 0 1.403-.52 2.442-1.507 3.17-.987.727-2.442 1.09-4.312 1.09h-7.948v-14.96h12.572v3.013h-8v2.753zm0 5.975h2.39c1.455 0 2.182-.52 2.182-1.559 0-.935-.727-1.403-2.182-1.403h-2.39v2.962zm15.793-11.741h12.365v3.169h-7.741v2.39h7.17v3.065h-7.17v2.96h8V51.9H96.108zm18.235 0h14.079v3.688h-4.728V51.9h-4.624V40.625h-4.727z" fill="#0B2344"/></g></svg>