<svg xmlns="http://www.w3.org/2000/svg" width="173" height="64"><g fill="none" fill-rule="evenodd"><path fill="#0A0B09" d="M12.123 64h149.112l10.992-38H23.115z"/><path fill="#0A0B09" d="M.675 36H113.42l10.52-36H11.197z"/><path fill="#EDE72E" d="M57.093 33.52l3.098 8.927 7.556-8.928h8.677l-6.38 22.33h-6.699l3.679-12.767-6.23 7.312h-4.307L54.14 43.49l-3.523 12.359H21.748l6.38-22.33h28.965zm40.905 0v22.329h-6.443v-3.732h-9.783l-2.116 3.732h-7.464l13.174-22.33h12.632zm24.435 0l-1.818 6.38h-6.289l-4.557 15.949h-6.699l4.558-15.95h-7.333l1.818-6.38h20.32zm19.076 0l-1.85 6.38h-10.144l-2.743 9.569h10.143l-1.818 6.38h-8.421c-5.264 0-7.688-3.03-6.189-8.262l2.36-8.166c1.149-4.02 3.701-5.902 7.848-5.902h10.814zm9.633 0l-2.278 7.974h7.656l2.278-7.975h6.7l-6.38 22.33h-6.7l2.279-7.975h-7.656l-2.278 7.975h-6.7l6.38-22.33h6.7zm-59.587 6.06h-2.672l-4.035 7.114h6.707V39.58zM48.767 8c5.264 0 7.656 3.158 6.189 8.262l-.638 2.2c-1.149 4.02-3.7 5.902-7.848 5.902h-7.897L36.87 30.33H8L14.38 8zm27.466 0v22.33h-6.444v-3.733h-9.782l-2.116 3.732h-7.465L63.6 8h12.632zm20.606 0c5.264 0 7.656 3.094 6.189 8.262l-.574 2.01c-.84 2.96-2.428 4.744-4.84 5.491l2 6.566h-6.89l-1.876-6.156H86.7l-1.76 6.156h-6.698L84.622 8zm18.278 0l-6.38 22.33h-6.698L108.419 8h6.698zM69.79 14.06h-2.672l-4.034 7.114h6.706v-7.113zm-21.054-.031h-7.209l-1.376 4.817h7.246l1.34-4.817zm48.072 0h-7.209l-1.376 4.817h7.246l1.34-4.817z"/></g></svg>