<svg xmlns="http://www.w3.org/2000/svg" width="204" height="68"><g fill="#CEAE6D"><path d="M17.921 39.656c-.095.159-.19.35-.254.508-.508 1.05-.603 2.257-.254 3.337a23.137 23.137 0 016.26-3.718c-1.875-.35-3.845-.413-5.752-.127zm1.843 6.292a6.88 6.88 0 001.621.508 28.352 28.352 0 012.351-5.656 22.027 22.027 0 00-5.91 3.559c.477.699 1.176 1.24 1.938 1.589zm6.673.222a94.468 94.468 0 01-1.684-5.18 24.43 24.43 0 00-2.415 5.625c1.367.064 2.765-.064 4.1-.445zm-2.065-11.185a33.47 33.47 0 00.826 3.75 30.756 30.756 0 014.004-4.131 11.28 11.28 0 00-4.83.381zm18.239 16.841a50.43 50.43 0 00-3.718-3.654 17.542 17.542 0 01-8.102 6.196c.826 1.907 1.78 3.909 2.796 6.038 3.972-1.621 7.181-4.703 9.024-8.58zM31.172 35.207c-.222-.095-.508-.19-.763-.286a26.93 26.93 0 00-4.099 3.972c2.352-.73 4.798-1.112 7.245-1.207l-.032-.064a4.018 4.018 0 00-2.351-2.415z"/><path d="M38.163 47.536a43.068 43.068 0 00-5.561-3.972 12.974 12.974 0 01-4.862 3.146h-.063a175.292 175.292 0 002.7 6.737 15.993 15.993 0 007.786-5.91zm-8.675 6.324c-1.08-2.51-1.97-4.735-2.733-6.768a13.224 13.224 0 01-4.734.476 46.025 46.025 0 00-1.367 6.864 17.36 17.36 0 008.834-.572zm27.676-44.9a4.86 4.86 0 001.907-3.272v-.095h.032a5.271 5.271 0 00-1.017-3.56A4.86 4.86 0 0054.813.128h-.095a5.086 5.086 0 00-3.56.985c-1.048.795-1.715 1.97-1.906 3.273v.127c-.317 2.67 1.59 5.084 4.258 5.434h.096v.032c1.27.127 2.542-.255 3.558-1.017zm-5.72-1.842a3.66 3.66 0 01-.698-2.415l.032-.064v-.032a3.39 3.39 0 011.27-2.224 3.66 3.66 0 012.416-.699l.095.032a3.39 3.39 0 012.224 1.27c.509.7.763 1.558.7 2.416l-.033.095a3.263 3.263 0 01-1.27 2.224 3.66 3.66 0 01-2.416.7l-.063-.032h-.032a3.2 3.2 0 01-2.224-1.271zM4.48 16.714a5.465 5.465 0 105.466-5.465 5.445 5.445 0 00-5.466 5.465zm13.092 37.622a12.074 12.074 0 01-4.544-3.654 15.202 15.202 0 00-1.08 3.273c1.78 2.733 4.29 4.925 7.245 6.26.063.032.158.064.222.095-.064-1.747.032-3.495.19-5.243a9.742 9.742 0 01-2.033-.73zm26.374-13.377c-.89-.509-1.843-.89-2.828-1.208.063.477.095.954.095 1.43 0 1.684-.381 3.337-1.112 4.862-.19.445-.413.89-.7 1.303 1.304 1.144 2.543 2.32 3.623 3.495a16.682 16.682 0 00.922-9.882zm-5.275 5.751c.19-.35.381-.73.572-1.08.921-1.938 1.24-4.13.858-6.228a20.325 20.325 0 00-5.37-.795v.255c-.032.858-.19 1.684-.572 2.478a7.499 7.499 0 01-.922 1.525 46.557 46.557 0 015.434 3.845zm-11.281-.858c1.653-.572 3.146-1.525 4.417-2.764a36.922 36.922 0 00-6.164-2.765c.413 1.59.985 3.432 1.748 5.53zm-6.29 1.526c-.605-.128-1.177-.286-1.749-.572-.89-.413-1.684-1.017-2.256-1.812a19.238 19.238 0 00-3.59 4.703 10.293 10.293 0 004.448 3.782 17.05 17.05 0 001.78.667c.286-2.288.762-4.544 1.366-6.768zm5.687-7.658a34.753 34.753 0 015.624 2.637c.35-.445.636-.921.89-1.398a4.53 4.53 0 00.445-2.32c-2.352.064-4.671.445-6.96 1.08zm5.91 21.099a228.078 228.078 0 01-2.828-6.07 17.505 17.505 0 01-9.31.636 44.011 44.011 0 00-.159 5.402c3.972 1.462 8.325 1.493 12.297.032z"/><path d="M33.079 61.677c-4.068 1.493-8.516 1.557-12.615.127.095 1.43.317 2.828.635 4.194a18.037 18.037 0 007.817 1.78h.095c2.256 0 4.48-.414 6.578-1.271a380.146 380.146 0 01-2.51-4.83zm5.624-27.137a9.529 9.529 0 011.906 3.178l.286.89c.922.285 1.843.667 2.733 1.08-.064-.254-.159-.477-.222-.763a18.718 18.718 0 00-4.703-4.385z"/><path d="M59.42 1.589l3.909 4.989c-.032.222-.19 1.493-.254 1.779-2.288 8.548-6.419 13.918-11.344 16.65-.032 0-.032.032-.064.032-7.435 4.036-15.729 1.716-23.418-3.336 0 0 6.1-.953 10.93 1.62 4.385 2.288 3.178 3.05 6.514 2.415C41.15 18.303 33.301 17 24.626 18.97a39.155 39.155 0 01-3.368-3.527h-3.972c.254.254 1.875 2.034 4.417 4.29-4.798 1.588-10.264 4.575-16.555 9.342L0 32.729h6.705c7.213-5.751 13.314-8.865 18.493-10.073 5.497 4.322 13.092 8.929 20.464 8.611 4.035 6.165 5.846 13.982 6.577 18.557.064.731.096 1.494.064 2.225h7.118v-1.875h-5.37c-.35-3.877-1.844-12.138-5.688-19.288 6.164-1.398 11.916-6.864 15.697-19.67.032-.126 1.334-4.766 1.334-4.766L60.596.318l-1.175 1.27z"/><path d="M45.249 44.39c0 2.48-.509 4.958-1.526 7.214.89.985 1.716 2.033 2.51 3.082 1.272-4.353.859-9.056-1.207-13.092.159.922.223 1.875.223 2.797zM34 61.295c.763 1.557 1.589 3.114 2.415 4.798a17.954 17.954 0 009.47-10.231 50.832 50.832 0 00-2.606-3.273A18.226 18.226 0 0134 61.295zm-9.978-28.979a35.2 35.2 0 00.191 1.748c1.938-.572 4.004-.668 5.974-.191.89-.667 1.875-1.24 2.892-1.716-1.367-.318-2.765-.508-4.163-.508-1.652 0-3.305.222-4.894.667zm-5.37 6.26a17.036 17.036 0 015.53.35c-.35-1.399-.636-2.638-.795-3.623a11.467 11.467 0 00-4.735 3.273zm15.825-5.974c-1.113.413-2.193.953-3.146 1.652.063.032.159.064.222.096a5.534 5.534 0 012.892 2.923c.032.127.095.254.127.381a24.14 24.14 0 015.211.667c-.032-.095-.063-.158-.063-.254-.89-2.478-2.797-4.353-5.243-5.465zm-20.623 7.086a19.244 19.244 0 013.527-.922c1.208-1.874 3.305-3.431 5.847-4.353l.064-.032c-.096-.699-.16-1.27-.191-1.747a17.51 17.51 0 00-9.247 7.054zm-.762 1.176c-.191.317-.35.667-.54.985a9.547 9.547 0 00.095 6.1c.095.255.222.509.317.795a18.141 18.141 0 013.623-4.608c-.064-.095-.095-.222-.127-.317a5.304 5.304 0 01.254-4.004 17.865 17.865 0 00-3.559 1.144l-.063-.095zm5.719 20.272c-2.828-1.302-5.275-3.272-7.086-5.783v.032a17.947 17.947 0 008.262 10.041c-.254-1.334-.445-2.669-.508-4.004-.191-.095-.445-.19-.668-.286zM11.82 48.267a6.935 6.935 0 01-.603-2.383c-.254 1.24-.413 2.51-.381 3.781v.032c0 .858.063 1.716.19 2.542.095.19.19.413.286.636.286-1.049.7-2.097 1.176-3.082a11.052 11.052 0 01-.667-1.526zm159.26-30.473h6.991V52.43h-6.991zm-12.964 20.21L140.607 17.92h-3.527v34.51h7.086V32.475l17.382 19.955h3.559V17.794h-6.991zM109.785 52.43h21.417v-6.96h-14.458v-8.198h14.458v-6.864h-14.458v-5.751h14.585v-6.99h-21.544zm73.307-27.645h6.863V52.43h6.959V24.785h6.864v-6.864h-20.686zm-98.792 0h10.423l-11.28 24.086v3.686h20.21v-6.864H92.498l11.153-23.99v-3.654h-19.35z"/></g></svg>