<svg xmlns="http://www.w3.org/2000/svg" width="92" height="92"><g fill="none"><circle cx="46" cy="48" r="44" fill="#484538"/><path fill="#FFCB37" d="M46 52.79h-8.206v2.696s4.612 4.83 4.612 17.048h7.188c0-12.219 4.612-17.048 4.612-17.048v-2.695H46z"/><path fill="#FCAC1F" d="M46 72.534h3.594c0-4.435.607-7.895 1.382-10.506a5.595 5.595 0 01-9.952 0c.775 2.61 1.382 6.071 1.382 10.506H46z"/><path fill="#FFCB37" d="M83.914 17.969H8.086a8.086 8.086 0 100 16.172h5.39a2.694 2.694 0 11.001 5.39 2.696 2.696 0 100 5.391c4.465 0 8.085-3.62 8.085-8.086s-3.62-8.086-8.085-8.086H8.086a2.695 2.695 0 110-5.391h75.828a2.695 2.695 0 010 5.391h-5.39a8.087 8.087 0 00-.001 16.172 2.696 2.696 0 100-5.391 2.696 2.696 0 010-5.39h5.391c4.466 0 8.086-3.62 8.086-8.086s-3.62-8.086-8.086-8.086z"/><path fill="#FCAC1F" d="M92 26.055a2.696 2.696 0 01-5.391 0 2.695 2.695 0 01-2.695 2.695h-5.39a8.087 8.087 0 00-.001 16.172 2.696 2.696 0 100-5.391 2.696 2.696 0 010-5.39h5.391A8.086 8.086 0 0092 26.055zM2.695 28.75A2.696 2.696 0 010 26.055a8.086 8.086 0 008.086 8.086h5.39a2.694 2.694 0 11.001 5.39 2.696 2.696 0 100 5.391c4.465 0 8.085-3.62 8.085-8.086s-3.62-8.086-8.085-8.086H8.086a2.695 2.695 0 01-2.695-2.695 2.696 2.696 0 01-2.696 2.695z"/><path fill="#FFCB37" d="M46 53.008c-16.343 0-29.592-13.249-29.592-29.592V8.086h59.184v15.33c0 16.343-13.249 29.592-29.592 29.592z"/><path fill="#FCAC1F" d="M30.783 30.603V8.086H16.408v15.33c0 16.343 13.249 29.592 29.592 29.592 1.303 0 2.586-.085 3.845-.249-10.788-1.613-19.062-10.918-19.062-22.156z"/><path fill="#FFCB37" d="M83.734 5.39H8.266a2.695 2.695 0 110-5.39h75.468a2.696 2.696 0 110 5.391z"/><path fill="#F9D987" d="M79.242 10.781H12.758a2.695 2.695 0 01-2.695-2.695c0-1.489 23.923-2.695 25.411-2.695h43.768a2.694 2.694 0 110 5.39zM59.477 50.095H32.523a2.696 2.696 0 000 5.391h26.954a2.696 2.696 0 000-5.391z"/><path fill="#FFCB37" d="M43.305 52.79A2.695 2.695 0 0146 50.095H32.523a2.696 2.696 0 000 5.391H46a2.695 2.695 0 01-2.695-2.695z"/><path fill="#F9D987" d="M59.477 75.23H45.643c-1.489 0-5.034 1.206-5.034 2.695 0 0 1.207 2.695 2.696 2.695h16.172a2.696 2.696 0 000-5.391z"/><path fill="#FFCB37" d="M43.305 77.925A2.695 2.695 0 0146 75.229H32.523a2.696 2.696 0 000 5.391H46a2.695 2.695 0 01-2.695-2.695zm10.781-8.086H37.914a2.695 2.695 0 100 5.39h16.172a2.696 2.696 0 000-5.39z"/><path fill="#A0391E" d="M68.46 84.214a3.593 3.593 0 00-3.593-3.594H27.133a3.594 3.594 0 00-3.594 3.594v1.935A45.78 45.78 0 0046 92a45.783 45.783 0 0022.46-5.85v-1.936z"/><path fill="#84260D" d="M23.54 84.214v1.935a45.698 45.698 0 0014.374 5.142v-7.077a3.594 3.594 0 013.594-3.594H27.133a3.594 3.594 0 00-3.594 3.594z"/><path fill="#FFCB37" d="M33.422 8.086a2.695 2.695 0 012.695-2.695h-23.36a2.694 2.694 0 10.001 5.39h23.36a2.695 2.695 0 01-2.696-2.695z"/></g></svg>