<svg xmlns="http://www.w3.org/2000/svg" width="100" height="92"><g fill="none"><circle cx="50" cy="48" r="44" fill="#FB4B4E"/><path fill="#FFCB37" d="M73.143 0c14.732 0 26.676 13.665 26.676 28.397 0 37.001-49.91 62.817-49.91 62.817S0 65.398 0 28.397C0 13.665 11.944 0 26.676 0a26.649 26.649 0 0123.233 13.596A26.651 26.651 0 0173.143 0zM58.134 23.716h-18a3.633 3.633 0 00-3.648 3.648v31.134c-.04 2.027 1.581 3.649 3.608 3.649H56.27a11.42 11.42 0 0011.433-11.432A11.42 11.42 0 0056.27 39.283H43.743v-8.31h14.391c1.784-.163 3.203-1.541 3.324-3.325a3.639 3.639 0 00-3.324-3.932zM56.27 46.58a4.126 4.126 0 014.135 4.135 4.126 4.126 0 01-4.135 4.135H43.743v-8.27h12.526z"/><path fill="#FCAC1F" d="M6.884 28.397c0-13.63 10.23-26.323 23.426-28.15A26.925 26.925 0 0026.676 0C11.944 0 0 13.665 0 28.397c0 37.001 49.91 62.817 49.91 62.817s1.29-.67 3.441-1.935C42.076 82.65 6.884 59.472 6.884 28.397z"/></g></svg>